<?xml version="1.0" encoding="UTF-8"?>
<!DOCTYPE svg PUBLIC "-//W3C//DTD SVG 1.1//EN" "http://www.w3.org/Graphics/SVG/1.1/DTD/svg11.dtd">
<!-- Creator: CorelDRAW 2018 (64-Bit) -->
<svg xmlns="http://www.w3.org/2000/svg" xml:space="preserve" width="338.67mm" height="225.38mm" version="1.1" style="shape-rendering:geometricPrecision; text-rendering:geometricPrecision; image-rendering:optimizeQuality; fill-rule:evenodd; clip-rule:evenodd"
viewBox="0 0 33867 22538"
 xmlns:xlink="http://www.w3.org/1999/xlink">
 <defs>
  <style type="text/css">
   <![CDATA[
    .fil0 {fill:none}
    .fil1 {fill:#DCDDDD}
    .fil2 {fill:#B6B6B7}
    .fil3 {fill:#332C2B}
    .fil4 {fill:#EB5C00}
   ]]>
  </style>
 </defs>
 <g id="Layer_x0020_1">
  <metadata id="CorelCorpID_0Corel-Layer"/>
  <rect class="fil0" x="0.17" y="-0.13" width="33866.66" height="22538.26"/>
  <g id="_2267869789616">
   <path class="fil1" d="M16933.52 1863.34c0,0 -6908.64,281.51 -8640.37,7165.21 -1731.74,6883.7 6277.62,7663.01 4892.2,9654.51 -1385.41,1991.5 779.29,2164.66 1428.7,1471.97 649.4,-692.68 865.86,-346.32 865.86,86.6 0,432.93 1453.61,432.93 1453.61,432.93 0,0 1453.61,0 1453.61,-432.93 0,-432.92 216.46,-779.28 865.86,-86.6 649.41,692.69 2814.11,519.53 1428.7,-1471.97 -1385.42,-1991.5 6623.94,-2770.81 4892.2,-9654.51 -1731.73,-6883.7 -8640.37,-7165.21 -8640.37,-7165.21z"/>
   <path class="fil2" d="M15912.86 9115.13c0,0 -129.88,-2164.68 -2770.81,-2727.5 -2640.92,-562.83 -4719,3679.95 -2164.68,5801.35 2554.33,2121.4 5498.31,649.41 4935.49,-3073.85z"/>
   <path class="fil3" d="M15566.51 9677.96c0,0 86.59,-2424.49 -2814.1,-2337.89 -2900.69,86.61 -2810.53,3540.44 -952.47,4675.75 1858.06,1135.3 2770.81,735.96 3203.75,43.28 432.94,-692.69 606.1,-1255.51 562.82,-2381.14z"/>
   <path class="fil4" d="M12146.3 5565.04c0,0 1904.92,-129.86 3073.85,952.47 1168.93,1082.33 1385.39,2511.04 1428.69,1991.52 43.3,-519.53 86.59,-1039.07 -779.28,-2164.71 -865.87,-1125.63 -2857.39,-1515.27 -4156.2,-1168.93 -1298.81,346.35 -1601.88,1125.63 -1212.23,1039.05 389.64,-86.58 909.17,-606.1 1645.17,-649.4z"/>
   <path class="fil4" d="M10371.25 12665.22c0,0 1212.23,1255.5 2900.68,1082.33 1688.46,-173.16 1948.24,-259.74 995.77,216.49 -952.47,476.22 -2294.58,476.2 -3203.75,43.28 -909.17,-432.93 -1255.51,-1428.7 -692.7,-1342.1z"/>
   <path class="fil4" d="M11756.64 15197.91c0,0 1060.67,-173.18 1839.98,-303.07 779.3,-129.88 64.96,432.95 -173.17,1082.35 -238.12,649.41 -238.1,714.35 -584.46,649.41 -346.36,-64.94 -1775.06,-1147.29 -1082.35,-1428.69z"/>
   <path class="fil4" d="M10003.24 14115.56c0,0 454.57,216.46 1060.69,324.7 606.13,108.24 714.35,151.52 259.76,389.64 -454.58,238.13 -194.8,324.71 -800.92,-86.58 -606.13,-411.28 -757.65,-562.82 -519.53,-627.76z"/>
   <path class="fil2" d="M16933.52 14202.14c0,0 -1843.23,1212.25 -2038.05,2662.58 -194.82,1450.34 1555.3,757.65 1796.67,519.53 233.83,-230.68 241.13,-258.21 241.38,-259.7 0.24,1.49 7.55,29.02 241.37,259.7 241.38,238.12 1991.5,930.81 1796.68,-519.53 -194.82,-1450.33 -2038.05,-2662.58 -2038.05,-2662.58z"/>
   <path class="fil2" d="M17954.18 9115.13c0,0 129.88,-2164.68 2770.81,-2727.5 2640.92,-562.83 4719,3679.95 2164.68,5801.35 -2554.33,2121.4 -5498.31,649.41 -4935.49,-3073.85z"/>
   <path class="fil3" d="M18300.52 9677.96c0,0 -86.58,-2424.49 2814.11,-2337.89 2900.69,86.61 2810.53,3540.44 952.47,4675.75 -1858.06,1135.3 -2770.81,735.96 -3203.75,43.28 -432.94,-692.69 -606.11,-1255.51 -562.83,-2381.14z"/>
   <path class="fil4" d="M21720.74 5565.04c0,0 -1904.92,-129.86 -3073.85,952.47 -1168.93,1082.33 -1385.39,2511.04 -1428.7,1991.52 -43.3,-519.53 -86.58,-1039.07 779.29,-2164.71 865.87,-1125.63 2857.39,-1515.27 4156.2,-1168.93 1298.81,346.35 1601.88,1125.63 1212.23,1039.05 -389.64,-86.58 -909.17,-606.1 -1645.17,-649.4z"/>
   <path class="fil4" d="M23495.79 12665.22c0,0 -1212.23,1255.5 -2900.68,1082.33 -1688.46,-173.16 -1948.24,-259.74 -995.77,216.49 952.47,476.22 2294.58,476.2 3203.75,43.28 909.16,-432.93 1255.51,-1428.7 692.7,-1342.1z"/>
   <path class="fil4" d="M22110.4 15197.91c0,0 -1060.67,-173.18 -1839.98,-303.07 -779.3,-129.88 -64.96,432.95 173.16,1082.35 238.13,649.41 238.11,714.35 584.47,649.41 346.36,-64.94 1775.06,-1147.29 1082.35,-1428.69z"/>
   <path class="fil4" d="M23863.8 14115.56c0,0 -454.57,216.46 -1060.69,324.7 -606.13,108.24 -714.35,151.52 -259.77,389.64 454.59,238.13 194.81,324.71 800.93,-86.58 606.13,-411.28 757.65,-562.82 519.53,-627.76z"/>
   <path class="fil4" d="M15674.76 3357.06c0,0 -562.81,173.16 173.18,692.68 735.98,519.53 1085.58,1342.12 1085.58,1342.12 0,0 349.59,-822.61 1085.58,-1342.12 735.99,-519.5 173.18,-692.68 173.18,-692.68 -482.64,-344.77 -1049.7,-294.9 -1260.68,-260.28 -39.25,-9.83 -669.88,-158.98 -1256.84,260.28z"/>
   <path class="fil3" d="M16933.52 14700.02c0,0 2146.29,1385.4 1626.77,2294.56 -519.53,909.17 -1626.77,-735.98 -1626.77,-735.98 0,0 -1107.24,1645.15 -1626.77,735.98 -519.52,-909.16 1626.77,-2294.56 1626.77,-2294.56z"/>
  </g>
 </g>
</svg>
